<svg width="97" height="68" viewBox="0 0 97 68" fill="none" xmlns="http://www.w3.org/2000/svg">
<path d="M0.945312 49.917H5.57393V63.623H12.8704V67.7447H0.945312V49.917ZM27.3612 49.917V54.0387H19.54V56.6972H26.0128V60.7194H19.54V63.623H27.3612V67.7447H15.0061V49.917H27.3612ZM40.2339 49.917L46.3495 67.7447H41.648L40.5619 64.5193H34.4172L33.3529 67.7447H28.7681L34.8837 49.917H40.2339ZM35.7219 60.6198H39.2645L37.4932 55.3105L35.7219 60.6198ZM52.8004 67.7447H48.1718V49.917H55.5922C59.7762 49.917 62.3493 52.0545 62.3493 55.8774C62.3493 58.4133 61.1174 60.298 58.9744 61.2173L62.8741 67.7447H57.5748L54.2437 61.8379H52.8004V67.7447ZM55.3516 57.9843C56.9844 57.9843 57.7644 57.1875 57.7644 56C57.7644 54.7359 56.9844 53.9928 55.3516 53.9928H52.8004V57.992H55.3516V57.9843ZM79.9234 67.7447H75.9071L69.15 57.4174V67.7447H64.7328V49.917H69.2667L75.477 59.6238V49.917H79.9161V67.7447H79.9234ZM91.6663 54.0387V67.7447H87.0377V54.0387H82.0518V49.917H96.6521V54.0387H91.6663Z" fill="black"/>
<path d="M17.9502 6.19796L17.9541 18.5898L48.8018 37.1837L79.6494 18.5898V14.4578V6.19796L69.3669 0.0040669L48.8018 12.3919L28.2328 0L17.9502 6.19796Z" fill="url(#paint0_linear)"/>
<defs>
<linearGradient id="paint0_linear" x1="17.9788" y1="18.5962" x2="79.6801" y2="18.5962" gradientUnits="userSpaceOnUse">
<stop stop-color="#8500DB"/>
<stop offset="1" stop-color="#01FFFF"/>
</linearGradient>
</defs>
</svg>
