<svg width="30" height="30" viewBox="0 0 30 30" fill="none" xmlns="http://www.w3.org/2000/svg">
<g clip-path="url(#clip0)">
<path fill-rule="evenodd" clip-rule="evenodd" d="M8.75 26.25C8.75 24.8693 9.86929 23.75 11.25 23.75C12.6307 23.75 13.75 24.8693 13.75 26.25C13.75 27.6307 12.6307 28.75 11.25 28.75C9.86929 28.75 8.75 27.6307 8.75 26.25Z" fill="#841FD8"/>
<path fill-rule="evenodd" clip-rule="evenodd" d="M22.5 26.25C22.5 24.8693 23.6193 23.75 25 23.75C26.3807 23.75 27.5 24.8693 27.5 26.25C27.5 27.6307 26.3807 28.75 25 28.75C23.6193 28.75 22.5 27.6307 22.5 26.25Z" fill="#841FD8"/>
<path fill-rule="evenodd" clip-rule="evenodd" d="M0 1.25C0 0.559644 0.559644 0 1.25 0H6.25C6.84578 0 7.35876 0.420482 7.47569 1.00468L8.52554 6.25H28.75C29.1225 6.25 29.4757 6.41616 29.7131 6.70319C29.9506 6.99023 30.0477 7.36822 29.9779 7.73416L27.9761 18.231C27.8046 19.0943 27.335 19.8697 26.6494 20.4216C25.9672 20.9707 25.1145 21.2637 24.2392 21.25H12.1108C11.2355 21.2637 10.3828 20.9707 9.7006 20.4216C9.01531 19.8699 8.54579 19.0949 8.37416 18.2321C8.37409 18.2317 8.37423 18.2324 8.37416 18.2321L6.28599 7.799C6.27752 7.76449 6.27048 7.72942 6.26494 7.69385L5.2254 2.5H1.25C0.559644 2.5 0 1.94036 0 1.25ZM9.02591 8.75L10.8261 17.744C10.8832 18.0317 11.0397 18.2902 11.2683 18.4742C11.4968 18.6581 11.7827 18.7559 12.0761 18.7502L12.1 18.75H24.25L24.274 18.7502C24.5673 18.7559 24.8532 18.6581 25.0817 18.4742C25.3092 18.2911 25.4653 18.0341 25.5231 17.748L27.2391 8.75H9.02591Z" fill="#841FD8"/>
</g>
<defs>
<clipPath id="clip0">
<rect width="30" height="30" fill="white"/>
</clipPath>
</defs>
</svg>
